<?xml version="1.0" encoding="UTF-8"?>
<svg version="1.1" viewBox="0 0 1254 1254" width="1254" height="1254" xmlns="http://www.w3.org/2000/svg">
<path transform="translate(0)" d="m0 0h1254v1254h-1254z" fill="#FDFDFD"/>
<path transform="translate(609,205)" d="m0 0h34l18 3 20 6 21 10 12 8 11 9 15 15 12 17 10 19 7 19 4 19 1 10v21l-2 17-4 18-8 19-9 17-10 14-12 13-3 2-13-20-20-32 2-5 7-11 7-16 3-15v-24l-4-15-6-14-9-13-13-13-13-8-12-5-18-4h-22l-16 4-12 5-10 6-11 9-8 9-7 11-5 11-4 14-1 6v19l1 10 7-1h32l-2 6-13 21-14 23-25 40-3 1-7-8-11-14-8-13-8-16-7-21-3-16-1-11v-21l3-21 5-17 8-18 9-15 9-12 12-13 13-11 14-9 16-8 13-5 17-4z" fill="#065BFA"/>
<path transform="translate(432,465)" d="m0 0h36l22 5 16 6 7 3-2 5-12 19-16 25-4 2-9-3-13-2h-16l-15 3-16 6-11 7-10 8-10 12-8 14-6 18-2 11v16l3 16 5 15 8 14 11 13 12 9 16 8 14 4 7 1h21l15-3 15-6 12-8 10-9 7-9 6-10h63l-2 9-6 15-9 17-13 17-15 15-15 11-21 11-21 7-14 3-11 1h-24l-21-3-18-5-18-8-16-10-11-9-10-9-9-11-7-10-9-16-7-17-5-18-3-23v-19l2-17 5-19 6-15 8-16 10-15 13-15 11-10 14-10 21-11 21-7z" fill="#065BFA"/>
<path transform="translate(793,464)" d="m0 0h17l18 2 20 5 19 8 14 8 14 11 15 15 11 15 9 16 8 20 5 20 2 18v21l-2 18-5 21-8 20-10 17-11 14-6 7-8 7-14 11-18 10-15 6-20 5-16 2h-23l-17-2-19-5-19-8-17-10-11-9-10-9-11-14-8-13-7-14-6-17v-5h60l7 10 8 11 12 10 12 7 18 6 7 1h23l15-3 16-7 11-7 9-8 9-12 6-10 6-17 2-10v-26l-3-14-5-13-6-11-8-10-9-9-14-9-15-6-8-2-10-1h-12l-16 3-10 2-24-38-7-11 1-3 17-7 21-5z" fill="#FB5502"/>
<path transform="translate(623,361)" d="m0 0h7l11 4 6 5 3 5-1 7-14 28-9 20v7l6 5 15 24 16 26 30 48 26 42 1 3-2 1h-185l-2-1-2 5-17 28-6 9-8 6-8 2h-7l-9-4-8-7-4-8-1-5v-7l3-10 12-19 14-22 12-19 10-16 24-38 15-24 24-38 15-24 14-22 9-8z" fill="#065BFA"/>
<path transform="translate(650,376)" d="m0 0 4 5 14 23 16 26 13 21 16 26 30 48 12 19 13 21 12 19 7 12 2 8v7l-3 10-8 9-11 5h-276l4-2 7-4 5-5 6-9 10-17 8-13h187v-3l-16-26-30-48-16-26-15-24-11-17-5-4v-7l14-30 10-21z" fill="#FB5502"/>
<path transform="translate(623,438)" d="m0 0h5l6 7 16 26 15 24 16 26 12 19 26 42 1 3-2 1h-185l-1-3 17-28 30-48 14-23 12-19 15-24z" fill="#FDFDFD"/>
<path transform="translate(455,872)" d="m0 0h15l15 4 11 7 8 8 8 14 4 16v18l-3 15-7 14-10 11-12 7-11 3h-21l-12-4-9-6-2-2-1 57h-33v-160h32l1 1 1 11 7-7 11-5z" fill="#081018"/>
<path transform="translate(997,830)" d="m0 0h32v56l10-8 9-4 8-2h16l11 3 12 6 9 9 6 10 5 13 2 12v11l-3 17-5 12-7 9-7 7-12 6-7 2h-22l-12-4-11-8v-2h-2v12h-32z" fill="#081018"/>
<path transform="translate(716,830)" d="m0 0h33l1 1v63h63v-64h34v157h-34v-62h-63v62h-34z" fill="#081018"/>
<path transform="translate(308,872)" d="m0 0h14l15 3 16 8 11 10 7 11 4 10 2 11v14l-4 16-7 12-11 11-10 6-12 4-5 1h-25l-14-4-12-7-8-7-9-13-4-11-2-11v-11l3-14 7-14 11-12 13-8 13-4z" fill="#081018"/>
<path transform="translate(867,874)" d="m0 0h32l1 70 4 9 5 4 4 2h13l8-4 6-8 2-7 1-65 1-1h31l1 1v112h-32v-13l-5 5-8 6-11 4h-20l-12-4-9-7-6-7-5-12-1-6z" fill="#081018"/>
<path transform="translate(140,830)" d="m0 0h126l1 1v30h-47v126h-34v-126h-47v-30z" fill="#081018"/>
<path transform="translate(637,872)" d="m0 0h17l16 4 12 6 11 10 5 7v2l-25 14-4-2-6-7-9-4h-15l-10 5-6 7-3 7-1 5v9l2 8 4 7 5 5 9 4h15l10-5 7-8 5 2 22 12-1 5-11 12-11 7-11 4-6 1h-24l-12-3-12-6-11-9-7-10-5-12-2-10v-18l4-14 6-11 10-11 11-7 15-5z" fill="#081018"/>
<path transform="translate(535,874)" d="m0 0h32v113h-32z" fill="#081018"/>
<path transform="translate(315,900)" d="m0 0 11 2 9 6 6 8 3 10v10l-3 9-4 6-8 7-6 2h-14l-8-3-9-8-4-9-1-4v-10l3-10 6-8 9-6z" fill="#FDFDFD"/>
<path transform="translate(448,901)" d="m0 0h14l10 5 7 8 3 7 1 5v9l-3 10-4 6-7 6-7 3h-14l-9-4-7-7-4-10-1-5v-7l4-13 8-9z" fill="#FDFDFD"/>
<path transform="translate(1049,901)" d="m0 0h14l9 4 7 7 4 10 1 5-1 13-5 10-7 7-8 3h-14l-10-5-7-8-3-9v-14l4-11 6-7z" fill="#FDFDFD"/>
<path transform="translate(546,826)" d="m0 0h10l8 4 4 6 1 9-4 8-5 4-3 1h-13l-8-5-3-6v-8l3-7 5-4z" fill="#081018"/>
</svg>
